<svg width="12" height="13" viewBox="0 0 12 13" fill="none" xmlns="http://www.w3.org/2000/svg">
<path d="M1.40675 8.23333L0.773417 10.9667C0.751569 11.0666 0.752318 11.1701 0.775609 11.2697C0.7989 11.3693 0.844145 11.4624 0.908038 11.5423C0.971932 11.6222 1.05286 11.6867 1.14491 11.7313C1.23696 11.7759 1.33781 11.7994 1.44008 11.8C1.48774 11.8048 1.53576 11.8048 1.58342 11.8L4.33342 11.1667L9.61342 5.90666L6.66675 2.96666L1.40675 8.23333Z" fill="#8C8C8C"/>
<path d="M11.2733 3.27333L9.30666 1.30667C9.17736 1.17802 9.00238 1.1058 8.81999 1.1058C8.6376 1.1058 8.46262 1.17802 8.33332 1.30667L7.23999 2.4L10.1833 5.34333L11.2767 4.25C11.3406 4.18569 11.3913 4.1094 11.4258 4.02549C11.4602 3.94158 11.4778 3.85169 11.4775 3.76098C11.4772 3.67026 11.459 3.5805 11.424 3.49682C11.3889 3.41315 11.3377 3.3372 11.2733 3.27333Z" fill="#8C8C8C"/>
</svg>
